<?xml version="1.0" encoding="UTF-8"?>
<svg id="Layer_2" data-name="Layer 2" xmlns="http://www.w3.org/2000/svg" xmlns:xlink="http://www.w3.org/1999/xlink" viewBox="-6 -4 166 166">
  <defs>
    <style>
      .cls-1 {
        fill: url(#linear-gradient-2);
      }

      .cls-2 {
        fill: #231f20;
      }

      .cls-3 {
        fill: url(#linear-gradient);
      }

      .cls-4 {
        fill: #d8a428;
      }
    </style>
    <linearGradient id="linear-gradient" x1="104.74" y1="9.12" x2="36.6" y2="127.15" gradientUnits="userSpaceOnUse">
      <stop offset="0" stop-color="#e7e3e1"/>
      <stop offset="1" stop-color="#939496"/>
    </linearGradient>
    <linearGradient id="linear-gradient-2" x1="56.93" y1="22.02" x2="56.93" y2="129.53" gradientUnits="userSpaceOnUse">
      <stop offset="0" stop-color="#d8a428"/>
      <stop offset="1" stop-color="#c6832a"/>
    </linearGradient>
  </defs>
  <g id="Layer_3" data-name="Layer 3">
    <g>
      <path class="cls-2" d="M174.37,94.59v-.27c0-2.25,3.51-2.97,3.51-6.92v-46.35c0-3.95-3.51-4.76-3.51-6.92v-.36c0-.9.81-1.44,1.98-1.44h40.06c1.8,0,2.52.72,2.78,2.52l2.16,10.51c.27,1.53-.54,2.34-1.8,2.34h-.54c-4.22,0-6.83-9.97-12.58-9.97h-11.5c-1.97,0-3.59.99-3.59,3.86v19.31h11.59c4.4,0,4.76-6.56,7.09-6.56h.72c.9,0,1.53.72,1.53,1.89v14.46c0,1.08-.63,1.89-1.53,1.89h-.72c-2.34,0-2.69-6.2-7.09-6.2h-11.59l-.09,18.77c0,2.6,1.26,5.57,4.76,5.57h13.2c5.84,0,7.46-10.42,12.13-10.42h.72c1.26,0,1.8,1.17,1.62,2.34l-1.97,10.87c-.36,1.71-1.08,2.6-2.87,2.6h-42.4c-1.26,0-2.07-.54-2.07-1.53Z"/>
      <path class="cls-2" d="M311.98,94.32v.27c0,.99-.81,1.53-1.97,1.53h-19.67c-1.17,0-1.97-.54-1.97-1.53v-.27c0-2.25,5.03-3.05,3.59-6.83l-2.69-7.19h-25.06l-2.61,7.19c-1.43,3.77,3.59,4.58,3.59,6.83v.27c0,.99-.72,1.53-2.07,1.53h-11.77c-1.17,0-1.97-.54-1.97-1.53v-.27c0-2.25,3.23-2.52,4.85-6.83l17.88-45.9c1.26-3.32-3.14-5.57-3.14-7.46v-.36c0-.81.72-1.44,1.8-1.44h9.34c2.7,0,4.31,1.17,5.48,3.86l21.47,51.29c1.8,4.22,4.94,4.58,4.94,6.83ZM287.1,74.48l-10.51-27.93-10.24,27.93h20.75Z"/>
      <path class="cls-2" d="M335.25,64.33c0-20.21,14.19-32.78,30.27-32.78,15.18,0,25.86,8.26,25.86,16.53,0,3.77-2.42,6.2-6.11,6.2-9.88,0-10.96-17.24-23.26-17.24-7.81,0-13.56,7.99-13.56,18.59,0,18.14,10.15,32.33,22.01,32.33,3.41,0,6.2-.81,8.08-1.8v-13.2c0-4.04-5.39-4.67-5.39-6.83v-.36c0-.99.99-1.62,2.25-1.62l18.41.09c1.25,0,2.07.63,2.07,1.53v.36c0,2.25-4.67,2.79-4.67,6.92v11.5c0,2.33-.72,3.86-3.32,5.93-4.22,3.41-11.58,6.56-20.57,6.56-18.41,0-32.06-15.45-32.06-32.69Z"/>
      <path class="cls-2" d="M425.26,94.59v-.27c0-2.25,3.41-3.05,3.41-6.83v-46.52c0-3.86-3.41-4.49-3.41-6.83v-.36c0-.9.72-1.44,1.97-1.44h16.89c1.26,0,2.16.54,2.16,1.44v.36c0,2.34-3.86,2.97-3.86,6.83v44.64c0,2.69,1.17,5.03,3.77,5.03h12.93c6.74,0,8.08-11.68,11.95-11.68h1.08c1.17,0,1.8.72,1.53,1.97l-2.33,12.58c-.36,1.71-.99,2.6-2.79,2.6h-41.32c-1.26,0-1.97-.63-1.97-1.53Z"/>
      <path class="cls-2" d="M502.6,94.59v-.27c0-2.25,3.5-2.97,3.5-6.92v-46.35c0-3.95-3.5-4.76-3.5-6.92v-.36c0-.9.81-1.44,1.98-1.44h40.06c1.8,0,2.51.72,2.78,2.52l2.16,10.51c.27,1.53-.54,2.34-1.8,2.34h-.54c-4.22,0-6.83-9.97-12.58-9.97h-11.5c-1.97,0-3.59.99-3.59,3.86v19.31h11.58c4.4,0,4.76-6.56,7.1-6.56h.72c.9,0,1.53.72,1.53,1.89v14.46c0,1.08-.63,1.89-1.53,1.89h-.72c-2.34,0-2.69-6.2-7.1-6.2h-11.58l-.09,18.77c0,2.6,1.26,5.57,4.76,5.57h13.2c5.84,0,7.45-10.42,12.13-10.42h.72c1.26,0,1.8,1.17,1.62,2.34l-1.97,10.87c-.36,1.71-1.08,2.6-2.87,2.6h-42.4c-1.26,0-2.07-.54-2.07-1.53Z"/>
    </g>
    <path class="cls-2" d="M141.79,145.1s-.09-.09-.18-.28c-.09-.18-.18-.28-.28-.28h-.74v3.12c0,.06.05.12.14.16.1.04.14.08.14.11v.05s-.04.07-.11.07h-.9c-.07,0-.11-.02-.11-.07v-.05s.05-.07.14-.11c.1-.04.14-.09.14-.16v-3.12h-.79c-.1,0-.19.09-.27.28s-.14.28-.17.28h-.11c-.06,0-.08-.03-.06-.1l.12-.7c0-.07.05-.11.12-.11h2.81c.07,0,.12.04.13.11l.12.7c.02.06,0,.1-.05.1h-.11ZM146.35,147.64c.02.07.06.13.13.16.07.04.11.07.11.1v.07s-.03.07-.1.07h-.79c-.07,0-.11-.02-.11-.07v-.07s.04-.06.12-.1c.08-.04.11-.1.1-.17l-.5-2.7-1.08,2.96c-.03.1-.1.14-.19.14-.11,0-.18-.04-.2-.13l-1.04-3.02-.46,2.77c-.02.06.02.12.1.16s.12.08.12.11v.05s-.03.07-.1.07h-.65c-.07,0-.11-.02-.11-.07v-.05s.04-.07.13-.11.13-.09.14-.16l.5-3.07c.02-.08-.01-.15-.08-.2-.07-.05-.11-.09-.11-.11h0c0-.06.03-.08.1-.08h.54c.09,0,.14.04.17.11l1.03,3.04,1.06-3.04c.02-.07.08-.11.16-.11h.5c.07,0,.11.02.11.06v.06s-.03.06-.1.12c-.07.06-.09.12-.08.19l.6,3.01Z"/>
    <circle class="cls-3" cx="70.67" cy="68.13" r="68.13"/>
    <path class="cls-1" d="M39.7,129.53c-.18-.46-8.57-5.26-14.2-10.39,0,0,3.27-15.52,3.71-35.62s1.03-20.91-1.1-33.96-8.88-14.53-8.88-14.53c0,0,10.26-4.47,13.94,11.08,1.72,7.24,1.98,13.94,1.25.81s-6.4-21.09-8.29-22.74c0,0,6.23-2.45,9.83-2.13,3.14.28,5.68,1.23,8.22,3.45,2.68,2.34,2.65,5.88,4.92,22.01,1.53,10.92,1.39,9.39,1.39,9.39,0,0-.59-15.41-.88-17.83s-.31-5.34-1.03-9.83c-.53-3.32,2.71,6.46,3.59,19.73s.37,19.51.37,19.51c0,0,1.51-11.79,1.66-20.67.15-8.88-2.33-16.5-2.33-16.5,0,0,8.23,6.14,11.6,14.13s1.83,21.86,1.1,24.94-2.79,8.8-2.79,8.8c0,0,3.15-2.49,5.36-8.88,2.2-6.38,2.71-10.2,2.71-10.2,0,0,3.45,3.74,5.14,8.51,1.69,4.77,1.54,8.51,1.47,8.95s-.07,2.93,1.98,1.17.33-.11.33-.11c0,0,.94,3.36-2.37,7.87-3.3,4.51-5.71,10.13-10.66,11.18-4.95,1.05,5.65-2.32,6.92-2.38s5.39-.28,5.39-.28l16.57,29.61-54.92,4.88Z"/>
    <path class="cls-4" d="M42.85,127.99c-.18-.46-1.5-9.25-4.17-12.92-.74-1.02,43.93-24.49,46.83-60.92.85-10.69,1.1-25.02-.59-27.07,0,0,9,.49,11.75,11.11.92,3.55,3.12,17.62,3.12,17.62,0,0,3.04-21.25-7.18-35.12,0,0,9.13,1.72,13.17,6.38,3.68,4.24,4.62,8.94,4.73,13.94s-.15,15.41-1.17,17.75,7.58-17.87,1.98-28.83c0,0,7.44,5.92,7.85,8.58,1.16,7.54-1.67,20.23-9.17,36.96-.44.99,13-21.83,11.45-33.31-.06-.44,5.03,3.26,6.64,6.2s3.08,4.22.73,10.71c-1.71,4.72-9.01,17.15-9.99,18.95,0,0,8.49-5.96,12.99-18.04,1.17-3.14-1.35,13.46-6.79,23.15,0,0,5.94-5.56,7.88-14.38.44-2.01,3.48,9.15,2.08,11.98-3.14,6.38-10.92,11.46-10.92,11.46,0,0,8.74-4.45,13.44-10.93,0,0-.69,5.72-4.95,15.34-1.18,2.67-.58,1.28-9.73,7.21s-14.38,7.19-15.7,7.63-2.32,4.72-2.32,4.72c0,0,5.25.57,7.16.27s-20.8,7.55-20.8,7.55l-11.23.08c-7.28.05-14.52.9-21.62,2.52l-15.49,1.4Z"/>
    <path class="cls-4" d="M28.65,126.08c-.09-.24,13.58-5.95,32.7-7.92,13.35-1.38,29.72-.72,37.32-.28,2.63.15,5.22.64,7.72,1.46,6.57,2.13,21.16,6.38,32.19,6.05,14.67-.44,16.1-1.36,16.1-1.36,0,0-1.14,3.26-3.78,4.58s-9.35,3.37-13.11,3.01,11.65.37,14.36-.88-9.02,4.4-12.98,4.29c0,0,2.79.18,3.3.04s-3.92,2.71-6.38,4.33-6.02,3.15-7.85,3.3c0,0,2.2,1.94,4.18,5.25s4.77,9.54,4.99,10.2-2.92-4.94-15.92-9.13c-7.85-2.53-7.08-1.98-7.08-1.98,0,0,2.71,2.46,2.93,3.15s-.55-.22-1.32,0-2.05.92-2.05.92c0,0-1.21-.18-1.5-.22s11.88,2.53,12.84,2.42,3.74,1.06.99.99-25.56-1.27-28.11-1.62c-2.56-.36-3.29-.26-3.29-.26,0,0-4.63.84-6.75,1.61-2.12.77-8.39,2.61-12.43,2.67-4.04.06-11.91.58-26.22-1.84-14.3-2.42-19.81-4.29-23.66-5.39s-7.37-2.15-9.57-3.47-3.74-3.03-5.83-3.58-8.51-.49-8.72,2.48l-.12,1.71s-1.42-2.15-1.55-3.82c-.14-1.68.17-5.53,3.58-7.26,3.78-1.92,6.05-1.9,6.05-1.9,0,0,2.38-4.16,8.23-5.94,5.36-1.63,10.77-1.58,10.77-1.58Z"/>
    <g>
      <path d="M181.71,108.91c3.86,0,5.72,2.36,5.72,5.57,0,2.68-1.32,4.76-4.02,5.37l4.85,7.42h-3.99l-4.7-7.22h-1.3v7.22h-3.38v-18.36h6.82ZM178.29,116.75h3.26c1.67,0,2.47-1.02,2.47-2.27s-1.07-2.27-2.44-2.27h-3.29v4.53Z"/>
      <path d="M196.56,112.09v4.25h7.07v3.15h-7.07v4.62h7.57v3.16h-10.97v-18.33h10.72v3.15h-7.32Z"/>
      <path d="M211.71,118.9c-1.88-.66-4.21-1.92-4.21-4.75,0-3.42,2.57-5.52,5.53-5.45,1.62.05,3.37.72,4.85,2.2l-2.04,2.3c-1.04-.93-2.02-1.29-2.81-1.24-1.23.05-2.03,1-2.03,2.07,0,1.19.79,1.68,2.28,2.19l1.48.49c1.86.55,4.21,2.26,4.21,5.33,0,3.31-2.67,5.48-5.92,5.44-1.99-.05-4.17-.9-6.1-2.8l2.05-2.42c1.47,1.5,2.89,2.05,4.05,2.02,1.56,0,2.62-1.06,2.62-2.23,0-1.43-1.24-2.18-2.49-2.6l-1.47-.54Z"/>
      <path d="M229.87,112.09v15.18h-3.4v-15.15h-4.73v-3.18h12.83v3.15h-4.7Z"/>
      <path d="M256.08,118.1c0,5.26-4.29,9.4-9.48,9.4s-9.48-4.14-9.48-9.4,4.29-9.4,9.48-9.4,9.48,4.14,9.48,9.4ZM240.56,118.1c0,3.37,2.68,6.07,6.05,6.07s6.07-2.7,6.07-6.07-2.7-6.07-6.07-6.07-6.05,2.7-6.05,6.07Z"/>
      <path d="M267.77,108.91c3.86,0,5.72,2.36,5.72,5.57,0,2.68-1.32,4.76-4.02,5.37l4.85,7.42h-3.98l-4.7-7.22h-1.3v7.22h-3.38v-18.36h6.81ZM264.36,116.75h3.26c1.67,0,2.46-1.02,2.46-2.27s-1.07-2.27-2.44-2.27h-3.29v4.53Z"/>
      <path d="M292.23,127.27l-1.66-4.23h-7.47l-1.66,4.23h-3.58l7.17-18.33h3.61l7.17,18.33h-3.59ZM289.24,119.64l-2.39-6.52-2.41,6.52h4.8Z"/>
      <path d="M304.59,112.09v15.18h-3.4v-15.15h-4.73v-3.18h12.83v3.15h-4.7Z"/>
      <path d="M316.79,127.27h-3.4v-18.33h3.4v18.33Z"/>
      <path d="M340.63,118.1c0,5.26-4.29,9.4-9.48,9.4s-9.48-4.14-9.48-9.4,4.29-9.4,9.48-9.4,9.48,4.14,9.48,9.4ZM325.11,118.1c0,3.37,2.68,6.07,6.05,6.07s6.07-2.7,6.07-6.07-2.7-6.07-6.07-6.07-6.05,2.7-6.05,6.07Z"/>
      <path d="M357.81,108.94h3.4v18.33h-3.93l-8.38-13.01v13.01h-3.4v-18.33h3.93l8.38,12.98v-12.98Z"/>
      <path d="M370.09,118.9c-1.88-.66-4.21-1.92-4.21-4.75,0-3.42,2.57-5.52,5.54-5.45,1.62.05,3.36.72,4.85,2.2l-2.05,2.3c-1.03-.93-2.02-1.29-2.81-1.24-1.23.05-2.03,1-2.03,2.07,0,1.19.79,1.68,2.28,2.19l1.48.49c1.87.55,4.21,2.26,4.21,5.33,0,3.31-2.67,5.48-5.92,5.44-1.99-.05-4.18-.9-6.1-2.8l2.05-2.42c1.47,1.5,2.89,2.05,4.05,2.02,1.56,0,2.62-1.06,2.62-2.23,0-1.43-1.24-2.18-2.49-2.6l-1.47-.54Z"/>
      <path d="M404.48,125.44c-1.62,1.28-3.67,2.07-5.89,2.07-5.19,0-9.48-4.14-9.48-9.4s4.29-9.4,9.48-9.4c2.23,0,4.27.76,5.86,2.07l-2.34,2.34c-1.02-.7-2.25-1.08-3.52-1.08-3.37,0-6.05,2.7-6.05,6.07s2.67,6.07,6.05,6.07c.89,0,1.72-.18,2.48-.53v-5.13h3.4v6.92Z"/>
      <path d="M416.58,108.91c3.86,0,5.72,2.36,5.72,5.57,0,2.68-1.32,4.76-4.02,5.37l4.85,7.42h-3.99l-4.7-7.22h-1.3v7.22h-3.38v-18.36h6.82ZM413.17,116.75h3.26c1.67,0,2.46-1.02,2.46-2.27s-1.07-2.27-2.44-2.27h-3.29v4.53Z"/>
      <path d="M446.4,118.1c0,5.26-4.29,9.4-9.48,9.4s-9.48-4.14-9.48-9.4,4.29-9.4,9.48-9.4,9.48,4.14,9.48,9.4ZM430.88,118.1c0,3.37,2.67,6.07,6.05,6.07s6.07-2.7,6.07-6.07-2.7-6.07-6.07-6.07-6.05,2.7-6.05,6.07Z"/>
      <path d="M466.82,120.24c0,3.77-3.06,7.26-7.79,7.26s-7.76-3.49-7.76-7.26v-11.31h3.43v10.86c0,2.48,1.93,4.41,4.33,4.41s4.35-1.92,4.35-4.41v-10.86h3.43v11.31Z"/>
      <path d="M478.61,108.91c4.04-.03,6.05,2.41,6.05,5.91s-1.84,5.9-6,5.9h-3.16v6.55h-3.38v-18.36h6.49ZM475.53,117.39h2.91c1.92,0,2.82-1.18,2.82-2.6s-1.22-2.55-2.79-2.55h-2.93v5.15Z"/>
      <path d="M492.04,125.63c0,.54-.27,3.53-3.63,3.53.75-.56,1.2-1.12,1.47-1.65-.94-.13-1.65-.91-1.65-1.88,0-1.04.86-1.9,1.9-1.9s1.9.86,1.9,1.9Z"/>
      <path d="M507.73,127.27h-3.41v-18.33h3.41v18.33Z"/>
      <path d="M525.46,108.94h3.4v18.33h-3.93l-8.38-13.01v13.01h-3.41v-18.33h3.93l8.38,12.98v-12.98Z"/>
      <path d="M549.1,125.46c-1.6,1.29-3.64,2.05-5.86,2.05-5.19,0-9.48-4.14-9.48-9.4s4.29-9.4,9.48-9.4c2.23,0,4.27.76,5.86,2.07l-2.34,2.34c-1.02-.7-2.25-1.08-3.52-1.08-3.37,0-6.05,2.7-6.05,6.07s2.67,6.1,6.05,6.1c1.27,0,2.5-.4,3.52-1.11l2.35,2.37Z"/>
    </g>
  </g>
</svg>